<?xml version="1.0" encoding="utf-8"?>
<!-- Generator: Adobe Illustrator 21.0.0, SVG Export Plug-In . SVG Version: 6.00 Build 0)  -->
<svg version="1.1" id="Layer_1" xmlns="http://www.w3.org/2000/svg" xmlns:xlink="http://www.w3.org/1999/xlink" x="0px" y="0px"
	 viewBox="0 0 1440 651" style="enable-background:new 0 0 1440 651;" xml:space="preserve">
<style type="text/css">
	.st0{fill:url(#SVGID_1_);}
	.st1{fill:#C9182C;}
	.st2{fill:none;}
</style>
<g>
	<linearGradient id="SVGID_1_" gradientUnits="userSpaceOnUse" x1="1439.8149" y1="247.9739" x2="1439.8149" y2="525.775">
		<stop  offset="0" style="stop-color:#C9182C"/>
		<stop  offset="1" style="stop-color:#DE3F52"/>
	</linearGradient>
	<rect x="1439.6" y="75.4" class="st0" width="0.4" height="513.6"/>
	<path class="st1" d="M1492.6,594.3c-17.3,3.3-35,6.4-53,9.3v-15.8l0.4,0L1492.6,594.3z"/>
</g>
<path class="st2" d="M1439.6,28.3v575.2c-149.3,24.2-321.6,35.7-516.6,34.6c-327.9-1.8-508.3-40.8-755.1-40.8
	c-63.5,0-119.4,1.2-167.8,3.6V25c105.1-9.4,219.3-13.8,342.6-13.1c327.9,1.8,508.3,40.8,755.2,40.8
	C1262.4,52.7,1376.3,44.6,1439.6,28.3z"/>
</svg>
